<svg width="317" height="625" viewBox="0 0 317 625" fill="none" xmlns="http://www.w3.org/2000/svg">
<path d="M297.508 158.623H18.8754C8.45081 158.623 0 167.074 0 177.498V606.125C0 616.549 8.45081 625 18.8754 625H297.508C307.933 625 316.384 616.549 316.384 606.125V177.498C316.384 167.074 307.933 158.623 297.508 158.623Z" fill="#C5C383"/>
<path style="mix-blend-mode:multiply" d="M160.059 220.79C172.96 220.79 183.419 210.331 183.419 197.43C183.419 184.529 172.96 174.07 160.059 174.07C147.158 174.07 136.699 184.529 136.699 197.43C136.699 210.331 147.158 220.79 160.059 220.79Z" fill="url(#paint0_radial_229_5274)"/>
<path d="M168.703 198.353C168.703 204.565 163.647 209.622 157.435 209.622C151.223 209.622 146.167 204.565 146.167 198.353C146.167 192.141 151.223 187.085 157.435 187.085C163.647 187.085 168.703 192.141 168.703 198.353ZM150.498 198.353C150.498 202.18 153.608 205.29 157.435 205.29C161.262 205.29 164.371 202.18 164.371 198.353C164.371 194.527 161.262 191.417 157.435 191.417C153.608 191.417 150.498 194.527 150.498 198.353Z" fill="#251E20"/>
<g style="mix-blend-mode:multiply">
<path d="M154.405 191.597L154.485 191.769L154.584 191.989C155.275 193.51 154.604 195.311 153.076 196.002C151.555 196.692 149.761 196.028 149.063 194.507L148.977 194.321L154.398 191.603L154.405 191.597Z" fill="url(#paint1_linear_229_5274)"/>
</g>
<path d="M156.358 194.932C156.358 194.932 156.338 194.885 156.318 194.865L155.793 193.762C155.388 192.959 154.651 191.995 153.714 191.105C152.784 190.208 151.621 189.384 150.578 188.793L149.143 187.989C147.86 187.265 146.558 186.514 145.276 185.73C145.608 186.687 145.967 187.63 146.312 188.587C146.924 190.414 149.362 192.792 151.521 193.869C150.212 193.218 148.89 192.533 147.555 191.822L148.731 194.626C149.083 195.523 149.933 196.513 150.937 197.423L154.803 195.59C154.219 195.198 155.029 195.483 155.029 195.483L150.943 197.423C152.186 198.36 153.641 199.117 155.282 198.294C156.544 197.662 157.029 196.36 156.351 194.938L156.358 194.932Z" fill="url(#paint2_linear_229_5274)"/>
<path d="M153.388 188.142C152.936 186.899 151.614 185.345 150.113 184.082C149.588 183.624 149.036 183.205 148.492 182.866L147.09 181.983L145.203 180.774C144.578 180.362 143.987 179.936 143.369 179.505L143.761 180.973L144.22 182.421C144.505 183.338 145.19 184.434 146.06 185.458C146.964 186.467 148.08 187.384 149.136 187.982L150.571 188.786C151.847 189.49 153.189 190.135 154.485 190.766L153.382 188.135L153.388 188.142Z" fill="url(#paint3_linear_229_5274)"/>
<path d="M151.707 183.544L151.342 182.375C151.07 181.518 150.412 180.488 149.555 179.498C148.731 178.501 147.748 177.531 146.738 176.834L145.376 175.877C144.153 175.02 143.017 174.11 141.821 173.193C142.041 174.183 142.247 175.173 142.486 176.156C142.997 178.01 144.977 180.694 147.097 181.983L148.498 182.866L150.359 184.003C150.983 184.375 151.634 184.727 152.272 185.079C152.086 184.567 151.887 184.062 151.714 183.544H151.707Z" fill="url(#paint4_linear_229_5274)"/>
<path d="M149.608 176.501C149.435 175.864 149.056 175.12 148.552 174.362C148.08 173.598 147.475 172.814 146.811 172.103C146.326 171.592 145.814 171.113 145.296 170.721C144.851 170.382 144.419 170.037 144 169.691C142.871 168.761 141.735 167.798 140.599 166.808L141.117 169.798C141.257 170.748 141.861 171.904 142.632 173.013C143.416 174.123 144.339 175.173 145.369 175.877L146.731 176.834C147.947 177.671 149.136 178.481 150.352 179.259C150.086 178.342 149.854 177.418 149.608 176.501Z" fill="url(#paint5_linear_229_5274)"/>
<path d="M148.458 171.744L148.193 170.549C147.98 169.672 147.482 168.569 146.764 167.486C146.06 166.403 145.11 165.34 144.226 164.529L143.004 163.426C141.921 162.436 140.811 161.413 139.735 160.363C139.848 161.367 139.987 162.37 140.107 163.373C140.3 165.287 142.133 168.15 144 169.685C144.419 170.037 144.851 170.382 145.296 170.715L147.057 172.043L148.804 173.332L148.452 171.738L148.458 171.744Z" fill="url(#paint6_linear_229_5274)"/>
<path d="M147.11 164.523C146.944 163.207 146 161.393 144.824 159.832C144.412 159.267 143.967 158.736 143.509 158.284L142.34 157.115L140.772 155.52C140.253 154.982 139.768 154.43 139.263 153.879L139.323 155.394L139.449 156.909C139.529 157.865 139.948 159.088 140.572 160.277C141.23 161.466 142.107 162.603 143.011 163.426L144.233 164.529C145.316 165.499 146.485 166.429 147.602 167.34C147.442 166.403 147.269 165.466 147.123 164.523H147.11Z" fill="url(#paint7_linear_229_5274)"/>
<path d="M146.499 159.659L146.399 158.437C146.326 157.54 145.907 156.39 145.289 155.234C144.711 154.078 143.961 152.916 143.13 152.012L142.014 150.776C141.011 149.673 140.101 148.537 139.144 147.368C139.144 148.378 139.124 149.394 139.137 150.404C139.23 152.324 140.559 155.381 142.346 157.108L143.515 158.277L145.077 159.799C145.602 160.297 146.16 160.789 146.698 161.274C146.631 160.736 146.552 160.197 146.499 159.653V159.659Z" fill="url(#paint8_linear_229_5274)"/>
<path d="M146.007 152.331C145.98 151.667 145.774 150.863 145.449 150.012C145.157 149.162 144.745 148.265 144.253 147.421C143.894 146.81 143.502 146.238 143.084 145.734C142.725 145.308 142.379 144.876 142.047 144.438C141.15 143.282 140.253 142.093 139.363 140.877L139.21 143.906C139.137 144.863 139.469 146.125 139.974 147.381C140.499 148.637 141.17 149.866 142.007 150.783L143.124 152.019C144.127 153.102 145.11 154.158 146.12 155.188C146.067 154.238 146.04 153.281 146 152.331H146.007Z" fill="url(#paint9_linear_229_5274)"/>
<path d="M145.23 142.903C144.784 141.687 144.087 140.445 143.409 139.462L142.466 138.113C141.629 136.904 140.772 135.668 139.961 134.399C139.841 135.402 139.762 136.412 139.655 137.422C139.423 139.335 140.572 142.531 142.054 144.445C142.386 144.876 142.725 145.308 143.09 145.74L144.512 147.428L145.934 149.069L145.947 147.434V146.212C145.934 145.308 145.695 144.126 145.236 142.91L145.23 142.903Z" fill="url(#paint10_linear_229_5274)"/>
<path d="M145.03 135.017C144.758 134.372 144.446 133.761 144.094 133.216L143.21 131.814L142.034 129.908C141.655 129.263 141.303 128.625 140.938 127.968L140.652 129.463L140.433 130.964C140.3 131.914 140.433 133.203 140.772 134.499C141.144 135.801 141.755 137.11 142.446 138.106L143.389 139.455C144.226 140.644 145.163 141.807 146.047 142.943C146.1 141.993 146.133 141.043 146.2 140.093C146.333 138.777 145.814 136.797 145.01 135.017H145.03Z" fill="url(#paint11_linear_229_5274)"/>
<path d="M146.505 130.645C146.2 129.389 145.735 128.087 145.123 127.024L144.313 125.569C143.589 124.267 142.957 122.952 142.286 121.603C142.054 122.586 141.808 123.569 141.589 124.559C141.25 126.453 141.855 129.735 143.21 131.814L144.094 133.216L145.276 135.05C145.675 135.655 146.113 136.253 146.532 136.844C146.592 136.306 146.625 135.761 146.698 135.223L146.871 134.014C146.997 133.123 146.844 131.908 146.505 130.645Z" fill="url(#paint12_linear_229_5274)"/>
<path d="M147.841 125.589C147.748 124.692 147.548 123.729 147.263 122.799C147.05 122.128 146.798 121.477 146.505 120.892C146.253 120.394 146.014 119.895 145.788 119.397C145.163 118.062 144.552 116.7 143.974 115.324C143.675 116.288 143.402 117.258 143.137 118.234C142.864 119.151 142.891 120.46 143.104 121.795C143.329 123.138 143.701 124.486 144.313 125.569L145.123 127.024C145.854 128.307 146.578 129.556 147.329 130.785C147.489 129.848 147.681 128.918 147.854 127.981C147.98 127.33 147.954 126.499 147.834 125.596L147.841 125.589Z" fill="url(#paint13_linear_229_5274)"/>
<path d="M148.226 114.853L147.595 113.324C147.024 111.956 146.499 110.581 145.967 109.179C145.648 110.129 145.309 111.072 145.004 112.029C144.406 113.843 144.731 117.185 145.781 119.397C146.007 119.895 146.246 120.394 146.499 120.892L147.502 122.858L148.512 124.779L148.89 123.191L149.176 122.001C149.575 120.254 149.176 117.098 148.226 114.846V114.853Z" fill="url(#paint14_linear_229_5274)"/>
<path d="M150.797 110.86C150.651 110.169 150.478 109.498 150.246 108.893L149.668 107.338C149.17 105.956 148.665 104.554 148.186 103.153C147.821 104.076 147.482 105.02 147.13 105.95C146.804 106.833 146.685 108.116 146.758 109.451C146.851 110.793 147.123 112.188 147.595 113.324L148.226 114.853C148.804 116.208 149.402 117.543 150.013 118.852L150.83 116.102C151.229 114.833 151.169 112.773 150.791 110.86H150.797Z" fill="url(#paint15_linear_229_5274)"/>
<path d="M152.465 103L151.933 101.432C151.462 100.037 150.997 98.6281 150.545 97.2195L149.429 99.9768C148.718 101.717 148.824 105.046 149.661 107.338L150.239 108.893L151.03 110.946L151.847 112.979L152.378 111.418L152.79 110.248C153.388 108.534 153.249 105.312 152.458 103H152.465Z" fill="url(#paint16_linear_229_5274)"/>
<path d="M155.282 99.1529C155.175 98.4487 155.029 97.7644 154.83 97.1531L154.325 95.5785L152.983 91.3596L151.84 94.0903C151.481 94.954 151.302 96.203 151.322 97.5385C151.335 98.8673 151.541 100.276 151.933 101.432L152.465 103C152.95 104.395 153.428 105.77 153.94 107.146L154.983 104.435C155.474 103.179 155.561 101.1 155.282 99.1596V99.1529Z" fill="url(#paint17_linear_229_5274)"/>
<path d="M157.255 91.3331L156.757 89.7518L155.415 85.5462L154.279 88.2569C153.561 89.9711 153.568 93.2532 154.318 95.5785L154.823 97.1531L155.508 99.2526L156.199 101.339L156.83 99.7908L157.302 98.6281C158.006 96.9206 157.979 93.6584 157.248 91.3264L157.255 91.3331Z" fill="url(#paint18_linear_229_5274)"/>
<path d="M160.139 87.5128C160.046 86.8019 159.893 86.1176 159.693 85.5063L159.182 83.9317C158.73 82.5298 158.258 81.1346 157.793 79.7527L156.697 82.4568C156.345 83.3138 156.179 84.5496 156.192 85.8717C156.205 87.1939 156.391 88.5958 156.763 89.7584L157.262 91.3397L158.604 95.5453L159.74 92.8346C160.271 91.5722 160.404 89.4728 160.145 87.5194L160.139 87.5128Z" fill="url(#paint19_linear_229_5274)"/>
<path d="M162.059 79.6397L161.514 78.0718L160.032 73.9193L158.996 76.6433C158.358 78.3641 158.451 81.613 159.189 83.9317L159.7 85.5063L160.371 87.6125L161.042 89.7252L161.693 88.1639L162.178 86.9946C162.889 85.2671 162.869 81.9651 162.059 79.6464V79.6397Z" fill="url(#paint20_linear_229_5274)"/>
<path d="M164.816 75.7198C164.696 75.0155 164.53 74.3312 164.311 73.7266L163.753 72.1786C163.261 70.8033 162.697 69.4213 162.172 68.0593L161.215 70.8099C160.889 71.667 160.756 72.9028 160.816 74.2183C160.869 75.5337 161.109 76.9157 161.514 78.0717L162.059 79.6397C162.557 81.0482 163.002 82.4434 163.467 83.8519C163.833 82.9284 164.218 82.0182 164.57 81.0881C165.062 79.7925 165.135 77.6664 164.816 75.7198Z" fill="url(#paint21_linear_229_5274)"/>
<path d="M166.43 67.7737L165.832 66.2323L164.211 62.1596L163.261 64.9102C162.65 66.6443 162.916 69.8931 163.753 72.1786L164.311 73.7267L165.048 75.8062L165.779 77.8991L166.384 76.3045L166.836 75.1086C167.54 73.3613 167.307 70.0327 166.424 67.7604L166.43 67.7737Z" fill="url(#paint22_linear_229_5274)"/>
<path d="M169.068 63.7608C168.915 63.0632 168.703 62.3855 168.45 61.7809L167.806 60.2462L166.072 56.2L165.201 58.9838C164.922 59.8608 164.876 61.1099 165.002 62.4254C165.102 63.7342 165.381 65.1029 165.826 66.239L166.424 67.7804L168.018 71.9395L168.995 69.1225C169.447 67.8136 169.447 65.6875 169.068 63.7674V63.7608Z" fill="url(#paint23_linear_229_5274)"/>
<path d="M170.337 55.7415L169.686 54.2333L167.839 50.2137L167.055 53.0175C166.523 54.7781 166.855 57.9871 167.806 60.2461L168.45 61.7808L169.3 63.8404L170.104 65.9001L170.662 64.2922L171.048 63.0764C171.613 61.2759 171.294 57.9805 170.337 55.7548V55.7415Z" fill="url(#paint24_linear_229_5274)"/>
<path d="M172.762 51.609C172.583 50.9181 172.35 50.247 172.078 49.6623L171.387 48.1608C170.762 46.832 170.158 45.5099 169.506 44.1944C169.267 45.1378 168.988 46.068 168.736 47.0048C168.49 47.8884 168.47 49.1308 168.643 50.4397C168.815 51.7486 169.181 53.1106 169.686 54.2267L170.337 55.7349L172.064 59.8076L172.955 56.964C173.387 55.6485 173.26 53.5158 172.762 51.6024V51.609Z" fill="url(#paint25_linear_229_5274)"/>
<path d="M173.719 43.5565L172.981 42.0683L171.001 38.1417L170.304 40.972C170.085 41.8623 170.104 43.1114 170.317 44.4136C170.516 45.7158 170.869 47.0645 171.38 48.1674L172.071 49.6689L172.995 51.6821L173.911 53.7151L174.37 52.074L174.715 50.8449C175.214 49.0311 174.828 45.769 173.712 43.5632L173.719 43.5565Z" fill="url(#paint26_linear_229_5274)"/>
<path d="M175.978 39.3243C175.772 38.64 175.526 37.9889 175.233 37.4109C174.988 36.9192 174.742 36.4342 174.483 35.9425L172.39 32.0492L171.779 34.8994C171.599 35.803 171.599 37.0388 171.818 38.3344C172.031 39.6299 172.443 40.972 172.981 42.0682L173.719 43.5565C174.376 44.8853 175.034 46.2273 175.639 47.5628C175.918 46.606 176.157 45.6427 176.39 44.6793C176.722 43.3372 176.529 41.2178 175.978 39.3309V39.3243Z" fill="url(#paint27_linear_229_5274)"/>
<path d="M177.851 34.9726C177.606 33.6571 177.16 32.3084 176.582 31.232L175.798 29.777C175.087 28.4881 174.423 27.2125 173.666 25.9368C173.506 26.8936 173.28 27.837 173.081 28.7937C172.696 30.5876 173.32 33.77 174.47 35.9426C174.735 36.4342 174.975 36.9192 175.22 37.4109L176.21 39.3841L177.194 41.3707L177.599 39.7163L177.904 38.4739C178.144 37.5637 178.091 36.2881 177.838 34.9726H177.851Z" fill="url(#paint28_linear_229_5274)"/>
<path d="M178.688 26.9268C178.443 26.2491 178.157 25.6046 177.831 25.0399L177.007 23.5982L174.795 19.7979L174.27 22.6614C174.104 23.565 174.197 24.8074 174.489 26.0963C174.795 27.3919 175.207 28.7074 175.798 29.777L176.582 31.2321L178.668 35.152L179.293 32.2419C179.572 30.8866 179.353 28.7871 178.688 26.9201V26.9268Z" fill="url(#paint29_linear_229_5274)"/>
<path d="M178.974 18.8145C178.702 18.3428 178.403 17.8645 178.117 17.3927L175.792 13.6389L175.353 16.5224C175.28 16.9742 175.287 17.519 175.333 18.097C175.373 18.6817 175.473 19.3062 175.619 19.944C175.911 21.2196 176.396 22.5418 177.007 23.5982L177.831 25.0399L178.934 26.9733C179.306 27.6177 179.665 28.2689 180.011 28.92C180.137 28.3685 180.243 27.8104 180.343 27.2523L180.575 25.9966C180.914 24.143 180.203 20.914 178.981 18.8212L178.974 18.8145Z" fill="url(#paint30_linear_229_5274)"/>
<path d="M180.854 14.4096C180.589 13.7452 180.283 13.1141 179.944 12.5626L179.074 11.1607C178.303 9.91832 177.526 8.68256 176.702 7.45343L176.523 8.90181L176.303 10.3435C176.164 11.2538 176.303 12.4895 176.629 13.7652C176.961 15.0408 177.486 16.3497 178.124 17.3927C178.409 17.8645 178.708 18.3428 178.981 18.8145L181.187 22.6414L181.725 19.7115C181.977 18.3495 181.565 16.2433 180.854 14.4096Z" fill="url(#paint31_linear_229_5274)"/>
<path d="M182.389 9.92498C182.037 8.63605 181.466 7.3272 180.801 6.30403L179.891 4.91545L177.453 1.26129L177.101 4.1514C176.868 5.97184 177.825 9.10112 179.074 11.1607L179.944 12.5626L181.107 14.4495L182.263 16.3496L182.522 14.6687L182.715 13.4064C182.854 12.4762 182.728 11.2139 182.396 9.92498H182.389Z" fill="url(#paint32_linear_229_5274)"/>
<path d="M182.535 1.82605C182.25 1.17495 181.931 0.557063 181.559 0.0189042L180.609 -1.34974L178.064 -4.9574L177.798 -2.054C177.718 -1.13714 177.931 0.0919876 178.283 1.34769C178.649 2.60339 179.22 3.89232 179.891 4.90884L180.801 6.29742C181.612 7.53319 182.429 8.78225 183.22 10.038L183.585 7.0814C183.751 5.70611 183.306 3.62656 182.529 1.82605H182.535Z" fill="url(#paint33_linear_229_5274)"/>
<path d="M182.137 -6.27293L181.187 -7.62165C180.349 -8.81091 179.466 -10.0002 178.575 -11.1761C178.509 -10.2061 178.469 -9.23612 178.369 -8.27275C178.203 -6.44567 179.207 -3.36289 180.608 -1.34978L181.559 0.0188723C181.984 0.630115 182.376 1.24136 182.788 1.8526L184.004 3.69961L184.21 2.01205L184.362 0.743064C184.542 -1.13052 183.538 -4.29304 182.137 -6.27957V-6.27293Z" fill="url(#paint34_linear_229_5274)"/>
<g style="mix-blend-mode:multiply">
<path d="M138.134 160.955L137.941 160.935H137.895C135.496 160.722 133.722 158.609 133.928 156.211C134.141 153.813 136.254 152.039 138.652 152.245L138.851 152.265L138.134 160.955Z" fill="url(#paint35_linear_229_5274)"/>
<path d="M160.584 151.633L160.743 151.567L160.929 151.487C163.142 150.537 165.706 151.56 166.656 153.773C167.606 155.985 166.596 158.543 164.384 159.493L164.178 159.579L160.584 151.633Z" fill="url(#paint36_linear_229_5274)"/>
</g>
<path d="M139.782 150.218L137.981 150.896C137.41 151.102 136.818 151.507 136.2 151.946C135.583 152.371 134.998 152.969 134.453 153.58C133.882 154.304 133.43 155.148 133.257 155.965C133.078 156.776 133.191 157.56 133.742 158.291C134.167 158.855 134.745 159.187 135.377 159.267C136.021 159.36 136.659 159.148 137.396 158.762C137.416 158.749 137.443 158.736 137.463 158.716L136.612 157.267C137.011 156.623 137.37 155.932 137.709 155.334C137.988 154.809 138.28 154.278 138.592 153.733C139.018 153.042 139.489 152.364 139.988 151.667C140.479 150.962 141.037 150.344 141.609 149.667C140.997 149.853 140.38 150.012 139.775 150.218H139.782Z" fill="url(#paint37_linear_229_5274)"/>
<path d="M149.701 148.458C148.984 148.976 148.306 149.501 147.648 150.019C146.997 150.544 146.379 151.142 145.794 151.693C145.349 152.098 144.937 152.564 144.539 153.015C143.648 153.985 142.546 155.042 141.496 155.945C140.978 156.43 140.453 156.822 139.968 157.201C139.489 157.586 139.031 157.892 138.599 158.098C138.22 158.297 137.855 158.523 137.483 158.736L136.759 157.5C137.044 156.796 137.343 156.032 137.722 155.347C138.001 154.822 138.293 154.291 138.606 153.746C139.317 152.61 140.479 151.381 141.841 150.484C142.506 149.992 143.237 149.66 143.927 149.361C144.618 149.049 145.303 148.876 145.901 148.796C147.156 148.59 148.432 148.544 149.701 148.464V148.458Z" fill="url(#paint38_linear_229_5274)"/>
<path d="M155.953 148.903C155.322 148.81 154.697 148.683 154.059 148.643C153.461 148.597 152.757 148.604 152.013 148.71C151.269 148.843 150.485 149.042 149.721 149.295C148.957 149.6 148.213 149.952 147.542 150.338C146.871 150.75 146.279 151.228 145.794 151.686C145.349 152.092 144.937 152.557 144.539 153.009C143.469 154.178 142.552 155.467 141.768 156.729C142.233 156.536 142.738 156.437 143.216 156.277L143.947 156.065L144.691 155.905C146.053 155.547 147.98 154.65 149.827 153.573C150.492 153.221 151.143 152.829 151.727 152.417C152.226 152.065 152.737 151.779 153.262 151.454L154.345 150.829C154.71 150.637 155.083 150.464 155.461 150.278C156.225 149.919 157.016 149.54 157.826 149.268C157.209 149.102 156.577 149.009 155.946 148.909L155.953 148.903Z" fill="url(#paint39_linear_229_5274)"/>
<path d="M163.826 151.228L162.045 150.497C160.896 150.099 159.275 149.899 157.654 150.085C156.85 150.138 156.032 150.351 155.288 150.57C154.544 150.776 153.853 151.102 153.269 151.454C152.737 151.773 152.226 152.059 151.734 152.417C151.069 152.889 150.438 153.361 149.84 153.826C149.242 154.344 148.671 154.856 148.133 155.367L149.874 155.261L151.182 155.281C151.422 155.281 151.687 155.254 151.96 155.234C152.232 155.221 152.525 155.188 152.83 155.141C153.136 155.095 153.455 155.035 153.78 154.955C154.106 154.889 154.438 154.836 154.777 154.756C155.461 154.603 156.165 154.391 156.85 154.224C157.534 154.052 158.232 153.786 158.843 153.587C159.401 153.394 159.979 153.201 160.577 153.022C162.145 152.583 163.826 152.225 165.567 152.085C164.989 151.806 164.43 151.474 163.832 151.235L163.826 151.228Z" fill="url(#paint40_linear_229_5274)"/>
<path d="M167.414 154.032C167.181 153.334 166.623 152.577 165.653 152.118C165.626 152.105 165.587 152.085 165.56 152.072L164.922 153.294L165.175 152.809C164.357 152.683 163.547 152.597 162.75 152.67C161.959 152.73 161.235 152.796 160.57 153.009C159.979 153.195 159.401 153.381 158.843 153.573C157.335 154.145 155.94 154.783 154.644 155.573C155.654 155.699 156.631 155.959 157.621 156.191C158.956 156.603 161.115 156.563 163.195 156.603L163.082 156.822C162.318 156.975 161.607 157.108 160.869 157.347C161.414 157.54 161.906 157.839 162.417 158.091C163.228 158.018 164.052 157.972 164.856 157.713C165.66 157.447 166.437 156.982 167.042 156.125C167.5 155.46 167.64 154.736 167.414 154.025V154.032Z" fill="url(#paint41_linear_229_5274)"/>
<g style="mix-blend-mode:multiply">
<path d="M161.766 188.062L161.813 188.248L161.866 188.48C162.258 190.108 161.248 191.743 159.62 192.135C157.992 192.527 156.358 191.53 155.973 189.902L155.926 189.703L161.773 188.069L161.766 188.062Z" fill="url(#paint42_linear_229_5274)"/>
</g>
<path d="M163.042 193.284C163.042 193.284 163.029 193.231 163.015 193.211L157.255 194.693C158.298 195.855 159.587 196.892 161.354 196.4C162.716 196.021 163.434 194.825 163.042 193.291V193.284Z" fill="url(#paint43_linear_229_5274)"/>
<path d="M159.833 192.287C159.381 191.962 158.923 191.636 158.498 191.291C157.335 190.387 156.166 189.457 154.99 188.5L155.614 191.497C155.787 192.447 156.445 193.596 157.255 194.693L161.401 193.63C160.896 193.131 160.365 192.666 159.833 192.287Z" fill="url(#paint44_linear_229_5274)"/>
<path d="M153.893 182.036C155.023 183.059 156.146 184.049 157.268 185.019L158.524 186.095C159.454 186.879 160.431 187.922 161.175 188.985C161.926 190.055 162.471 191.145 162.716 192.022L163.022 193.218L161.633 193.576L159.826 192.294C159.375 191.969 158.916 191.643 158.491 191.298C156.577 189.809 154.624 186.986 154.372 185.059L153.887 182.036H153.893Z" fill="url(#paint45_linear_229_5274)"/>
<path d="M161.408 185.989C161.195 184.667 160.212 182.873 158.963 181.338C158.531 180.78 158.072 180.262 157.601 179.817L156.392 178.674C155.322 177.651 154.212 176.595 153.202 175.505C153.249 176.521 153.382 177.538 153.495 178.548C153.608 179.511 154.06 180.734 154.724 181.91C155.435 183.086 156.338 184.202 157.269 185.006L158.524 186.082C159.654 187.026 160.843 187.922 161.992 188.799L161.408 185.982V185.989Z" fill="url(#paint46_linear_229_5274)"/>
<path d="M160.624 181.112L160.484 179.883C160.384 178.98 159.933 177.837 159.282 176.688C158.63 175.545 157.88 174.389 157.016 173.512L155.86 172.303C154.81 171.22 153.86 170.103 152.877 168.961C152.91 169.977 152.89 171 152.976 172.017C153.109 173.95 154.564 176.986 156.398 178.674L157.607 179.817C158.145 180.322 158.677 180.813 159.222 181.298L160.903 182.727L160.644 181.099L160.624 181.112Z" fill="url(#paint47_linear_229_5274)"/>
<path d="M159.893 173.738C159.846 173.073 159.62 172.263 159.268 171.412C158.916 170.562 158.504 169.672 157.986 168.841C157.614 168.236 157.202 167.672 156.77 167.18L155.674 165.911C154.744 164.775 153.82 163.606 152.89 162.41L152.817 165.466C152.791 166.429 153.169 167.698 153.707 168.941C154.252 170.19 154.983 171.406 155.86 172.303L157.016 173.512C158.053 174.575 159.042 175.611 160.119 176.608C159.999 175.651 159.979 174.694 159.9 173.731L159.893 173.738Z" fill="url(#paint48_linear_229_5274)"/>
<path d="M159.667 168.801L159.64 167.565C159.627 167.107 159.541 166.589 159.381 166.024C159.248 165.459 159.056 164.861 158.81 164.257C158.318 163.048 157.634 161.812 156.863 160.842L155.88 159.513C155.003 158.324 154.132 157.108 153.262 155.859L153.049 158.908C153.016 159.393 153.056 159.952 153.162 160.549C153.282 161.147 153.481 161.792 153.727 162.423C154.212 163.699 154.903 164.954 155.667 165.898L156.763 167.167L158.232 168.821L159.7 170.436L159.667 168.788V168.801Z" fill="url(#paint49_linear_229_5274)"/>
<path d="M158.358 156.311C158.026 155.666 157.72 155.062 157.348 154.53L156.425 153.148C155.621 151.912 154.757 150.643 154.006 149.361C153.834 150.364 153.76 151.387 153.628 152.397C153.528 153.361 153.667 154.65 154.093 155.945C154.525 157.247 155.156 158.536 155.88 159.526L156.863 160.855C157.787 162.024 158.717 163.167 159.647 164.283L159.713 161.4C159.767 160.064 159.235 158.091 158.358 156.324V156.311Z" fill="url(#paint50_linear_229_5274)"/>
<path d="M158.172 148.245L157.315 146.816C156.936 146.179 156.544 145.528 156.185 144.876L155.129 142.903C154.923 143.9 154.704 144.896 154.564 145.906C154.411 146.863 154.531 148.165 154.843 149.474C155.156 150.79 155.767 152.125 156.431 153.148L157.355 154.53C157.773 155.141 158.165 155.739 158.61 156.337L159.926 158.105L160.039 156.463C160.059 156.052 160.105 155.64 160.158 155.234C160.364 153.434 159.394 150.344 158.179 148.252L158.172 148.245Z" fill="url(#paint51_linear_229_5274)"/>
<path d="M160.145 143.9C159.913 143.229 159.64 142.584 159.328 142.013L158.537 140.531C157.853 139.209 157.235 137.874 156.591 136.505L155.84 139.468C155.634 140.412 155.7 141.721 155.953 143.056C156.079 143.72 156.259 144.391 156.478 145.029C156.717 145.667 157.009 146.272 157.322 146.803L158.179 148.232C158.956 149.494 159.687 150.723 160.531 151.939C160.617 150.982 160.79 150.032 160.943 149.082C161.162 147.76 160.743 145.727 160.152 143.886L160.145 143.9Z" fill="url(#paint52_linear_229_5274)"/>
<path d="M160.816 135.854C160.57 135.349 160.358 134.851 160.139 134.339C159.554 132.99 158.969 131.609 158.398 130.2L157.508 133.13C157.209 134.047 157.202 135.362 157.401 136.711C157.601 138.06 157.966 139.435 158.537 140.525L159.328 142.006L160.391 143.94L161.461 145.833L161.793 144.219L162.045 143.01C162.358 141.222 161.893 138.086 160.816 135.847V135.854Z" fill="url(#paint53_linear_229_5274)"/>
<path d="M163.268 131.761C163.095 131.064 162.889 130.393 162.663 129.795L162.079 128.247C161.56 126.865 161.036 125.443 160.557 124.008C160.192 124.965 159.866 125.928 159.521 126.891C159.361 127.35 159.248 127.901 159.189 128.506C159.155 128.811 159.142 129.124 159.135 129.449C159.142 129.781 159.162 130.114 159.195 130.459C159.321 131.821 159.647 133.223 160.139 134.339C160.358 134.844 160.57 135.349 160.816 135.854C161.461 137.196 162.112 138.518 162.77 139.807L163.481 137.01C163.633 136.359 163.706 135.528 163.673 134.618C163.64 133.708 163.5 132.718 163.275 131.761H163.268Z" fill="url(#paint54_linear_229_5274)"/>
<path d="M164.869 123.855L164.358 122.274L163.686 120.128C163.467 119.404 163.294 118.693 163.095 117.969L162.451 119.357L161.873 120.772C161.507 121.669 161.328 122.965 161.335 124.314C161.374 125.676 161.647 127.104 162.072 128.247L162.657 129.795C162.909 130.472 163.201 131.157 163.494 131.834L164.377 133.848L164.856 132.273C164.982 131.881 165.082 131.482 165.228 131.097C165.852 129.396 165.56 126.161 164.849 123.855H164.869Z" fill="url(#paint55_linear_229_5274)"/>
<path d="M167.759 120.068C167.686 119.364 167.567 118.679 167.394 118.048L166.962 116.434C166.57 114.979 166.278 113.544 165.952 112.062C165.494 112.972 165.015 113.869 164.57 114.786C164.165 115.663 163.919 116.952 163.859 118.307C163.78 119.656 163.979 121.098 164.358 122.274L164.869 123.855L165.567 125.935C165.806 126.619 166.085 127.317 166.344 127.994L166.829 126.639L167.374 125.303C167.626 124.686 167.773 123.862 167.826 122.945C167.852 122.486 167.846 122.001 167.839 121.516C167.839 121.038 167.812 120.546 167.766 120.061L167.759 120.068Z" fill="url(#paint56_linear_229_5274)"/>
<path d="M170.231 112.381L169.899 110.753C169.6 109.292 169.341 107.83 169.101 106.348C168.596 107.225 168.078 108.096 167.6 108.993C166.656 110.673 166.337 114.049 166.962 116.434L167.394 118.048L167.985 120.168C168.191 120.872 168.377 121.556 168.61 122.254C168.822 121.749 169.068 121.257 169.294 120.759L169.812 119.643C170.543 117.988 170.722 114.786 170.231 112.388V112.381Z" fill="url(#paint57_linear_229_5274)"/>
<path d="M173.353 106.86L173.094 105.219C172.868 103.757 172.649 102.269 172.457 100.801C171.912 101.644 171.387 102.508 170.869 103.372C170.37 104.189 169.992 105.418 169.826 106.767C169.639 108.109 169.653 109.537 169.899 110.753L170.231 112.381C170.516 113.816 170.889 115.264 171.227 116.666C171.673 115.809 172.091 114.946 172.55 114.102C173.194 112.926 173.513 110.873 173.52 108.919C173.52 108.209 173.46 107.504 173.347 106.867L173.353 106.86Z" fill="url(#paint58_linear_229_5274)"/>
<path d="M176.695 101.458L176.483 99.8107L175.958 95.3859L174.31 97.8973C173.274 99.4852 172.702 102.794 173.094 105.219L173.353 106.86L173.739 109.039L174.144 111.192L174.975 109.757L175.599 108.68C176.064 107.89 176.423 106.7 176.609 105.392C176.808 104.089 176.861 102.681 176.689 101.458H176.695Z" fill="url(#paint59_linear_229_5274)"/>
<path d="M180.183 96.1433L180.004 94.4889L179.539 90.0641L177.865 92.5356C177.333 93.313 176.915 94.5288 176.662 95.8443C176.403 97.1598 176.343 98.5949 176.489 99.8107L176.702 101.458C176.908 102.927 177.107 104.382 177.333 105.83L178.888 103.352C179.612 102.203 180.117 100.17 180.23 98.2029C180.27 97.492 180.263 96.7877 180.183 96.1366V96.1433Z" fill="url(#paint60_linear_229_5274)"/>
<path d="M183.745 90.8746L183.578 89.2202L183.127 84.802L181.452 87.2536C180.389 88.8016 179.738 92.0505 179.997 94.4889L180.177 96.1432L180.429 98.3423L180.702 100.535L181.625 99.133L182.323 98.0832C183.346 96.5352 183.99 93.3129 183.738 90.8746H183.745Z" fill="url(#paint61_linear_229_5274)"/>
<path d="M187.332 85.6125L187.159 83.9582L186.668 79.5533L185.02 82.0049C184.495 82.7756 184.077 83.9649 183.811 85.2737C183.545 86.5826 183.446 87.9977 183.572 89.2202L183.738 90.8745L184.203 95.2861L185.864 92.8345C186.641 91.6984 187.199 89.6521 187.346 87.6788C187.399 86.9613 187.392 86.257 187.326 85.6059L187.332 85.6125Z" fill="url(#paint62_linear_229_5274)"/>
<path d="M190.887 80.324L190.687 78.6697C190.508 77.2013 190.322 75.7397 190.109 74.2847C189.591 75.1085 189.06 75.9324 188.521 76.7496C187.518 78.3042 186.907 81.5199 187.159 83.9582L187.332 85.6126L187.558 87.825L187.784 90.0374L188.741 88.6355L189.458 87.5792C190.521 86.0245 191.166 82.7623 190.88 80.324H190.887Z" fill="url(#paint63_linear_229_5274)"/>
<path d="M194.348 74.9624L194.109 73.3147C193.877 71.8464 193.671 70.4047 193.398 68.9563C192.92 69.8001 192.395 70.6173 191.89 71.4544C191.418 72.245 191.04 73.4343 190.82 74.7365C190.608 76.0454 190.541 77.4539 190.687 78.6697L190.887 80.3241L191.378 84.7489L193.046 82.2574C193.803 81.0881 194.355 79.0218 194.435 77.0287C194.468 76.3045 194.435 75.6002 194.348 74.9558V74.9624Z" fill="url(#paint64_linear_229_5274)"/>
<path d="M197.644 69.4878C197.544 68.943 197.464 68.4048 197.351 67.8534C197.066 66.3917 196.767 64.95 196.454 63.5282L195.059 66.0795C194.175 67.6807 193.757 70.883 194.109 73.3147L194.348 74.9624L194.64 77.1682L194.92 79.3873L195.843 77.9322L196.534 76.8426C197.557 75.2282 198.069 71.9062 197.637 69.4878H197.644Z" fill="url(#paint65_linear_229_5274)"/>
<path d="M200.726 63.8936L200.354 62.2659C200.015 60.8241 199.67 59.3957 199.311 57.9872L197.996 60.585C197.584 61.4088 197.331 62.6246 197.192 63.9268C197.066 65.2357 197.112 66.6442 197.351 67.8534C197.464 68.4049 197.551 68.943 197.644 69.4878C197.889 70.9428 198.155 72.4311 198.354 73.8994C198.886 73.049 199.384 72.1653 199.903 71.295C200.633 70.0924 200.992 67.9331 200.959 65.9532C200.939 65.2291 200.879 64.5315 200.733 63.8936H200.726Z" fill="url(#paint66_linear_229_5274)"/>
<path d="M203.577 58.1798L203.151 56.572C202.759 55.1435 202.394 53.7483 201.949 52.3331C201.57 53.2301 201.145 54.1004 200.733 54.9841C200.341 55.8146 200.128 57.0503 200.069 58.3658C199.989 59.6747 200.082 61.0765 200.361 62.2725L200.733 63.9002C200.892 64.6244 201.032 65.3486 201.178 66.0794L201.603 68.2786L202.434 66.7571L203.058 65.6143C203.503 64.7639 203.776 63.4949 203.882 62.1462C203.935 61.4752 203.935 60.7776 203.895 60.1065C203.842 59.4355 203.729 58.7711 203.577 58.1798Z" fill="url(#paint67_linear_229_5274)"/>
<path d="M206.613 54.406C206.533 53.6885 206.4 52.9909 206.214 52.3663L205.736 50.7784C205.317 49.3766 204.846 47.9614 204.381 46.5728C204.009 47.4764 203.67 48.3866 203.271 49.2769C202.906 50.1207 202.72 51.3498 202.706 52.6786C202.706 54.0074 202.819 55.3893 203.145 56.5786L203.57 58.1864C203.962 59.6281 204.301 61.0699 204.633 62.5315C205.085 61.628 205.557 60.731 205.975 59.8142C206.56 58.5385 206.839 56.4058 206.613 54.4193V54.406Z" fill="url(#paint68_linear_229_5274)"/>
<path d="M208.666 46.4665L208.148 44.8919L206.66 40.7195L205.63 43.4568C205.304 44.3205 205.138 45.5497 205.165 46.8718C205.191 48.194 205.397 49.5958 205.743 50.7585L206.221 52.3464L206.852 54.4924C207.065 55.21 207.264 55.9341 207.45 56.6517C207.703 56.1335 207.935 55.6019 208.161 55.0771L208.679 53.8878C209.058 53.0108 209.277 51.7418 209.271 50.3931C209.257 49.0377 209.058 47.6226 208.673 46.4599L208.666 46.4665Z" fill="url(#paint69_linear_229_5274)"/>
<path d="M211.45 42.5134C211.33 41.8025 211.164 41.1182 210.945 40.507L210.36 38.9456L208.779 34.8198L207.809 37.5836C207.656 38.0221 207.556 38.5537 207.503 39.1383C207.437 39.723 207.423 40.3608 207.45 41.0185C207.51 42.3407 207.749 43.7359 208.154 44.8986L208.672 46.4732L210.041 50.732L211.171 47.9282C211.715 46.6327 211.775 44.4734 211.456 42.5134H211.45Z" fill="url(#paint70_linear_229_5274)"/>
<path d="M213.038 34.4809L212.42 32.9329C211.862 31.5576 211.324 30.2022 210.745 28.8469C210.46 29.7837 210.141 30.7072 209.835 31.6373C209.543 32.5143 209.483 33.7767 209.57 35.0922C209.656 36.4076 209.928 37.7962 210.36 38.9456L210.945 40.5069L211.689 42.5998L212.426 44.7126L213.031 43.0981L213.483 41.8889C214.127 40.095 213.955 36.7664 213.044 34.4809H213.038Z" fill="url(#paint71_linear_229_5274)"/>
<path d="M215.615 30.3949C215.456 29.6906 215.25 29.0129 214.998 28.415L214.353 26.8802C213.782 25.5249 213.19 24.1695 212.586 22.8208C212.313 23.7642 212.034 24.7077 211.735 25.6378C211.463 26.5215 211.403 27.7772 211.536 29.0993C211.669 30.4215 211.955 31.7967 212.413 32.9329L213.031 34.4809C213.589 35.8628 214.101 37.2448 214.626 38.6466C214.951 37.6966 215.303 36.7531 215.609 35.803C216.041 34.4742 216.034 32.3349 215.609 30.3949H215.615Z" fill="url(#paint72_linear_229_5274)"/>
<path d="M217.815 26.1494C217.668 24.814 217.33 23.4254 216.838 22.3026L216.167 20.7812L214.333 16.7483L213.536 19.5853C213.004 21.3658 213.416 24.6214 214.353 26.8736L214.998 28.4084L215.855 30.468L216.692 32.5343C216.871 31.9895 217.057 31.4447 217.217 30.8999L217.602 29.6707C217.881 28.7672 217.947 27.4849 217.815 26.1494Z" fill="url(#paint73_linear_229_5274)"/>
<path d="M219.263 18.1235C219.084 17.4259 218.858 16.7615 218.585 16.1702L217.888 14.662L216.001 10.6491L215.237 13.4994C214.998 14.4029 214.978 15.6586 215.144 16.9741C215.31 18.2896 215.682 19.6649 216.174 20.7811L216.845 22.3026L218.625 26.3952L219.469 23.5184C219.868 22.183 219.755 20.0503 219.263 18.1302V18.1235Z" fill="url(#paint74_linear_229_5274)"/>
<path d="M220.233 10.018L219.515 8.51644L217.589 4.52344L216.844 7.38697C216.386 9.19412 216.838 12.4364 217.874 14.6687L218.572 16.1769L219.489 18.1966L220.406 20.2297L220.871 18.582L221.216 17.3462C221.728 15.5258 221.276 12.2304 220.226 10.018H220.233Z" fill="url(#paint75_linear_229_5274)"/>
<path d="M222.552 5.78577C222.352 5.0948 222.107 4.43041 221.821 3.84574L221.097 2.35086L219.143 -1.6355L218.426 1.24132C218.2 2.1449 218.207 3.40725 218.406 4.72939C218.605 6.04489 218.991 7.40689 219.515 8.51643L220.233 10.018L222.12 14.0442L222.891 11.1541C223.236 9.81199 223.077 7.68593 222.545 5.78577H222.552Z" fill="url(#paint76_linear_229_5274)"/>
<path d="M223.369 -2.33308L222.638 -3.82797L220.665 -7.80768L219.954 -4.92422C219.502 -3.11042 220.027 0.145105 221.097 2.35089L221.821 3.84577L222.791 5.84559L223.748 7.85206L224.173 6.19773L224.485 4.96195C224.95 3.13487 224.445 -0.133942 223.362 -2.33308H223.369Z" fill="url(#paint77_linear_229_5274)"/>
<path d="M227.269 -6.18655C226.797 -7.69473 226.013 -9.25605 223.98 -9.76764C222.412 -10.1596 221.077 -9.4753 220.685 -7.88076C220.685 -7.85418 220.671 -7.8276 220.671 -7.80103L221.482 -7.60171C221.695 -6.28622 222.1 -4.91756 222.638 -3.82132L223.369 -2.32643L225.329 1.66657L226.046 -1.22354C226.379 -2.56562 226.186 -4.67838 225.634 -6.57855L227.269 -6.17991V-6.18655Z" fill="url(#paint78_linear_229_5274)"/>
<defs>
<radialGradient id="paint0_radial_229_5274" cx="0" cy="0" r="1" gradientUnits="userSpaceOnUse" gradientTransform="translate(160.052 197.423) rotate(-90) scale(23.36 23.3601)">
<stop offset="0.16" stop-color="white"/>
<stop offset="0.19" stop-color="#F5F5F5"/>
<stop offset="0.23" stop-color="#DBDBDB"/>
<stop offset="0.29" stop-color="#B0B0B0"/>
<stop offset="0.35" stop-color="#808080"/>
<stop offset="0.6" stop-color="#808080"/>
<stop offset="0.62" stop-color="#989898"/>
<stop offset="0.66" stop-color="#B8B8B8"/>
<stop offset="0.71" stop-color="#D2D2D2"/>
<stop offset="0.76" stop-color="#E6E6E6"/>
<stop offset="0.81" stop-color="#F4F4F4"/>
<stop offset="0.88" stop-color="#FCFCFC"/>
<stop offset="1" stop-color="white"/>
</radialGradient>
<linearGradient id="paint1_linear_229_5274" x1="148.977" y1="193.935" x2="154.857" y2="193.935" gradientUnits="userSpaceOnUse">
<stop stop-color="#6E161A"/>
<stop offset="0.61" stop-color="#FF0000"/>
<stop offset="0.97" stop-color="#FF4D4D"/>
</linearGradient>
<linearGradient id="paint2_linear_229_5274" x1="147.94" y1="194.447" x2="152.505" y2="189.882" gradientUnits="userSpaceOnUse">
<stop stop-color="#2C382E"/>
<stop offset="0.61" stop-color="#5E564A"/>
<stop offset="0.97" stop-color="#C5C383"/>
</linearGradient>
<linearGradient id="paint3_linear_229_5274" x1="147.322" y1="186.746" x2="150.1" y2="183.976" gradientUnits="userSpaceOnUse">
<stop stop-color="#2C382E"/>
<stop offset="0.61" stop-color="#5E564A"/>
<stop offset="0.97" stop-color="#C5C383"/>
</linearGradient>
<linearGradient id="paint4_linear_229_5274" x1="145.462" y1="180.714" x2="148.166" y2="178.003" gradientUnits="userSpaceOnUse">
<stop stop-color="#2C382E"/>
<stop offset="0.61" stop-color="#5E564A"/>
<stop offset="0.97" stop-color="#C5C383"/>
</linearGradient>
<linearGradient id="paint5_linear_229_5274" x1="143.907" y1="174.601" x2="146.618" y2="171.897" gradientUnits="userSpaceOnUse">
<stop stop-color="#2C382E"/>
<stop offset="0.61" stop-color="#5E564A"/>
<stop offset="0.97" stop-color="#C5C383"/>
</linearGradient>
<linearGradient id="paint6_linear_229_5274" x1="142.692" y1="168.436" x2="145.422" y2="165.698" gradientUnits="userSpaceOnUse">
<stop stop-color="#2C382E"/>
<stop offset="0.61" stop-color="#5E564A"/>
<stop offset="0.97" stop-color="#C5C383"/>
</linearGradient>
<linearGradient id="paint7_linear_229_5274" x1="141.801" y1="162.237" x2="144.711" y2="159.327" gradientUnits="userSpaceOnUse">
<stop stop-color="#2C382E"/>
<stop offset="0.61" stop-color="#5E564A"/>
<stop offset="0.97" stop-color="#C5C383"/>
</linearGradient>
<linearGradient id="paint8_linear_229_5274" x1="141.237" y1="156.012" x2="144.505" y2="152.743" gradientUnits="userSpaceOnUse">
<stop stop-color="#2C382E"/>
<stop offset="0.61" stop-color="#5E564A"/>
<stop offset="0.97" stop-color="#C5C383"/>
</linearGradient>
<linearGradient id="paint9_linear_229_5274" x1="140.858" y1="149.919" x2="144.632" y2="146.145" gradientUnits="userSpaceOnUse">
<stop stop-color="#2C382E"/>
<stop offset="0.61" stop-color="#5E564A"/>
<stop offset="0.97" stop-color="#C5C383"/>
</linearGradient>
<linearGradient id="paint10_linear_229_5274" x1="140.765" y1="143.906" x2="145.117" y2="139.561" gradientUnits="userSpaceOnUse">
<stop stop-color="#2C382E"/>
<stop offset="0.61" stop-color="#5E564A"/>
<stop offset="0.97" stop-color="#C5C383"/>
</linearGradient>
<linearGradient id="paint11_linear_229_5274" x1="141.044" y1="137.92" x2="145.967" y2="132.997" gradientUnits="userSpaceOnUse">
<stop stop-color="#2C382E"/>
<stop offset="0.61" stop-color="#5E564A"/>
<stop offset="0.97" stop-color="#C5C383"/>
</linearGradient>
<linearGradient id="paint12_linear_229_5274" x1="141.662" y1="131.974" x2="147.163" y2="126.473" gradientUnits="userSpaceOnUse">
<stop stop-color="#2C382E"/>
<stop offset="0.61" stop-color="#5E564A"/>
<stop offset="0.97" stop-color="#C5C383"/>
</linearGradient>
<linearGradient id="paint13_linear_229_5274" x1="142.632" y1="126.074" x2="148.678" y2="120.028" gradientUnits="userSpaceOnUse">
<stop stop-color="#2C382E"/>
<stop offset="0.61" stop-color="#5E564A"/>
<stop offset="0.97" stop-color="#C5C383"/>
</linearGradient>
<linearGradient id="paint14_linear_229_5274" x1="143.981" y1="120.241" x2="150.505" y2="113.716" gradientUnits="userSpaceOnUse">
<stop stop-color="#2C382E"/>
<stop offset="0.61" stop-color="#5E564A"/>
<stop offset="0.97" stop-color="#C5C383"/>
</linearGradient>
<linearGradient id="paint15_linear_229_5274" x1="145.635" y1="114.467" x2="152.565" y2="107.531" gradientUnits="userSpaceOnUse">
<stop stop-color="#2C382E"/>
<stop offset="0.61" stop-color="#5E564A"/>
<stop offset="0.97" stop-color="#C5C383"/>
</linearGradient>
<linearGradient id="paint16_linear_229_5274" x1="147.588" y1="108.707" x2="154.81" y2="101.485" gradientUnits="userSpaceOnUse">
<stop stop-color="#2C382E"/>
<stop offset="0.61" stop-color="#5E564A"/>
<stop offset="0.97" stop-color="#C5C383"/>
</linearGradient>
<linearGradient id="paint17_linear_229_5274" x1="149.754" y1="102.96" x2="157.162" y2="95.5453" gradientUnits="userSpaceOnUse">
<stop stop-color="#2C382E"/>
<stop offset="0.61" stop-color="#5E564A"/>
<stop offset="0.97" stop-color="#C5C383"/>
</linearGradient>
<linearGradient id="paint18_linear_229_5274" x1="152.06" y1="97.193" x2="159.561" y2="89.692" gradientUnits="userSpaceOnUse">
<stop stop-color="#2C382E"/>
<stop offset="0.61" stop-color="#5E564A"/>
<stop offset="0.97" stop-color="#C5C383"/>
</linearGradient>
<linearGradient id="paint19_linear_229_5274" x1="154.451" y1="91.3929" x2="161.946" y2="83.8985" gradientUnits="userSpaceOnUse">
<stop stop-color="#2C382E"/>
<stop offset="0.61" stop-color="#5E564A"/>
<stop offset="0.97" stop-color="#C5C383"/>
</linearGradient>
<linearGradient id="paint20_linear_229_5274" x1="156.837" y1="85.5196" x2="164.231" y2="78.1183" gradientUnits="userSpaceOnUse">
<stop stop-color="#2C382E"/>
<stop offset="0.61" stop-color="#5E564A"/>
<stop offset="0.97" stop-color="#C5C383"/>
</linearGradient>
<linearGradient id="paint21_linear_229_5274" x1="159.195" y1="79.5799" x2="166.444" y2="72.3314" gradientUnits="userSpaceOnUse">
<stop stop-color="#2C382E"/>
<stop offset="0.61" stop-color="#5E564A"/>
<stop offset="0.97" stop-color="#C5C383"/>
</linearGradient>
<linearGradient id="paint22_linear_229_5274" x1="161.454" y1="73.5739" x2="168.543" y2="66.4848" gradientUnits="userSpaceOnUse">
<stop stop-color="#2C382E"/>
<stop offset="0.61" stop-color="#5E564A"/>
<stop offset="0.97" stop-color="#C5C383"/>
</linearGradient>
<linearGradient id="paint23_linear_229_5274" x1="163.607" y1="67.508" x2="170.497" y2="60.6182" gradientUnits="userSpaceOnUse">
<stop stop-color="#2C382E"/>
<stop offset="0.61" stop-color="#5E564A"/>
<stop offset="0.97" stop-color="#C5C383"/>
</linearGradient>
<linearGradient id="paint24_linear_229_5274" x1="165.626" y1="61.4088" x2="172.33" y2="54.6984" gradientUnits="userSpaceOnUse">
<stop stop-color="#2C382E"/>
<stop offset="0.61" stop-color="#5E564A"/>
<stop offset="0.97" stop-color="#C5C383"/>
</linearGradient>
<linearGradient id="paint25_linear_229_5274" x1="167.52" y1="55.2698" x2="174.051" y2="48.7388" gradientUnits="userSpaceOnUse">
<stop stop-color="#2C382E"/>
<stop offset="0.61" stop-color="#5E564A"/>
<stop offset="0.97" stop-color="#C5C383"/>
</linearGradient>
<linearGradient id="paint26_linear_229_5274" x1="169.301" y1="49.0843" x2="175.626" y2="42.7593" gradientUnits="userSpaceOnUse">
<stop stop-color="#2C382E"/>
<stop offset="0.61" stop-color="#5E564A"/>
<stop offset="0.97" stop-color="#C5C383"/>
</linearGradient>
<linearGradient id="paint27_linear_229_5274" x1="170.948" y1="42.8655" x2="177.074" y2="36.7398" gradientUnits="userSpaceOnUse">
<stop stop-color="#2C382E"/>
<stop offset="0.61" stop-color="#5E564A"/>
<stop offset="0.97" stop-color="#C5C383"/>
</linearGradient>
<linearGradient id="paint28_linear_229_5274" x1="172.463" y1="36.6269" x2="178.409" y2="30.6806" gradientUnits="userSpaceOnUse">
<stop stop-color="#2C382E"/>
<stop offset="0.61" stop-color="#5E564A"/>
<stop offset="0.97" stop-color="#C5C383"/>
</linearGradient>
<linearGradient id="paint29_linear_229_5274" x1="173.865" y1="30.3484" x2="179.605" y2="24.6081" gradientUnits="userSpaceOnUse">
<stop stop-color="#2C382E"/>
<stop offset="0.61" stop-color="#5E564A"/>
<stop offset="0.97" stop-color="#C5C383"/>
</linearGradient>
<linearGradient id="paint30_linear_229_5274" x1="175.141" y1="24.0433" x2="180.668" y2="18.5089" gradientUnits="userSpaceOnUse">
<stop stop-color="#2C382E"/>
<stop offset="0.61" stop-color="#5E564A"/>
<stop offset="0.97" stop-color="#C5C383"/>
</linearGradient>
<linearGradient id="paint31_linear_229_5274" x1="176.27" y1="17.7249" x2="181.612" y2="12.3766" gradientUnits="userSpaceOnUse">
<stop stop-color="#2C382E"/>
<stop offset="0.61" stop-color="#5E564A"/>
<stop offset="0.97" stop-color="#C5C383"/>
</linearGradient>
<linearGradient id="paint32_linear_229_5274" x1="177.287" y1="11.38" x2="182.429" y2="6.23759" gradientUnits="userSpaceOnUse">
<stop stop-color="#2C382E"/>
<stop offset="0.61" stop-color="#5E564A"/>
<stop offset="0.97" stop-color="#C5C383"/>
</linearGradient>
<linearGradient id="paint33_linear_229_5274" x1="178.184" y1="5.00185" x2="183.1" y2="0.0853327" gradientUnits="userSpaceOnUse">
<stop stop-color="#2C382E"/>
<stop offset="0.61" stop-color="#5E564A"/>
<stop offset="0.97" stop-color="#C5C383"/>
</linearGradient>
<linearGradient id="paint34_linear_229_5274" x1="178.928" y1="-1.36971" x2="183.651" y2="-6.09354" gradientUnits="userSpaceOnUse">
<stop stop-color="#2C382E"/>
<stop offset="0.61" stop-color="#5E564A"/>
<stop offset="0.97" stop-color="#C5C383"/>
</linearGradient>
<linearGradient id="paint35_linear_229_5274" x1="134.706" y1="159.187" x2="140.24" y2="153.646" gradientUnits="userSpaceOnUse">
<stop stop-color="#6E161A"/>
<stop offset="0.61" stop-color="#FF0000"/>
<stop offset="0.97" stop-color="#FF4D4D"/>
</linearGradient>
<linearGradient id="paint36_linear_229_5274" x1="160.584" y1="155.354" x2="167.008" y2="155.354" gradientUnits="userSpaceOnUse">
<stop stop-color="#6E161A"/>
<stop offset="0.61" stop-color="#FF0000"/>
<stop offset="0.97" stop-color="#FF4D4D"/>
</linearGradient>
<linearGradient id="paint37_linear_229_5274" x1="133.756" y1="158.337" x2="142.021" y2="150.072" gradientUnits="userSpaceOnUse">
<stop stop-color="#2C382E"/>
<stop offset="0.61" stop-color="#5E564A"/>
<stop offset="0.97" stop-color="#C5C383"/>
</linearGradient>
<linearGradient id="paint38_linear_229_5274" x1="136.918" y1="158.158" x2="148.16" y2="146.916" gradientUnits="userSpaceOnUse">
<stop stop-color="#2C382E"/>
<stop offset="0.61" stop-color="#5E564A"/>
<stop offset="0.97" stop-color="#C5C383"/>
</linearGradient>
<linearGradient id="paint39_linear_229_5274" x1="143.662" y1="158.623" x2="155.428" y2="146.856" gradientUnits="userSpaceOnUse">
<stop stop-color="#2C382E"/>
<stop offset="0.61" stop-color="#5E564A"/>
<stop offset="0.97" stop-color="#C5C383"/>
</linearGradient>
<linearGradient id="paint40_linear_229_5274" x1="151.661" y1="158.895" x2="162.025" y2="148.537" gradientUnits="userSpaceOnUse">
<stop stop-color="#2C382E"/>
<stop offset="0.61" stop-color="#5E564A"/>
<stop offset="0.97" stop-color="#C5C383"/>
</linearGradient>
<linearGradient id="paint41_linear_229_5274" x1="157.906" y1="158.835" x2="165.288" y2="151.454" gradientUnits="userSpaceOnUse">
<stop stop-color="#2C382E"/>
<stop offset="0.61" stop-color="#5E564A"/>
<stop offset="0.97" stop-color="#C5C383"/>
</linearGradient>
<linearGradient id="paint42_linear_229_5274" x1="157.222" y1="191.782" x2="161.354" y2="187.65" gradientUnits="userSpaceOnUse">
<stop stop-color="#6E161A"/>
<stop offset="0.61" stop-color="#FF0000"/>
<stop offset="0.97" stop-color="#FF4D4D"/>
</linearGradient>
<linearGradient id="paint43_linear_229_5274" x1="158.823" y1="196.28" x2="162.457" y2="192.646" gradientUnits="userSpaceOnUse">
<stop stop-color="#2C382E"/>
<stop offset="0.61" stop-color="#5E564A"/>
<stop offset="0.97" stop-color="#C5C383"/>
</linearGradient>
<linearGradient id="paint44_linear_229_5274" x1="155.907" y1="193.35" x2="158.511" y2="190.746" gradientUnits="userSpaceOnUse">
<stop stop-color="#2C382E"/>
<stop offset="0.61" stop-color="#5E564A"/>
<stop offset="0.97" stop-color="#C5C383"/>
</linearGradient>
<linearGradient id="paint45_linear_229_5274" x1="156.584" y1="189.497" x2="159.295" y2="186.786" gradientUnits="userSpaceOnUse">
<stop stop-color="#2C382E"/>
<stop offset="0.61" stop-color="#5E564A"/>
<stop offset="0.97" stop-color="#C5C383"/>
</linearGradient>
<linearGradient id="paint46_linear_229_5274" x1="155.986" y1="183.77" x2="158.77" y2="180.986" gradientUnits="userSpaceOnUse">
<stop stop-color="#2C382E"/>
<stop offset="0.61" stop-color="#5E564A"/>
<stop offset="0.97" stop-color="#C5C383"/>
</linearGradient>
<linearGradient id="paint47_linear_229_5274" x1="155.215" y1="177.518" x2="158.318" y2="174.415" gradientUnits="userSpaceOnUse">
<stop stop-color="#2C382E"/>
<stop offset="0.61" stop-color="#5E564A"/>
<stop offset="0.97" stop-color="#C5C383"/>
</linearGradient>
<linearGradient id="paint48_linear_229_5274" x1="154.737" y1="171.279" x2="158.245" y2="167.765" gradientUnits="userSpaceOnUse">
<stop stop-color="#2C382E"/>
<stop offset="0.61" stop-color="#5E564A"/>
<stop offset="0.97" stop-color="#C5C383"/>
</linearGradient>
<linearGradient id="paint49_linear_229_5274" x1="154.445" y1="165.194" x2="158.517" y2="161.121" gradientUnits="userSpaceOnUse">
<stop stop-color="#2C382E"/>
<stop offset="0.61" stop-color="#5E564A"/>
<stop offset="0.97" stop-color="#C5C383"/>
</linearGradient>
<linearGradient id="paint50_linear_229_5274" x1="154.511" y1="159.134" x2="159.149" y2="154.497" gradientUnits="userSpaceOnUse">
<stop stop-color="#2C382E"/>
<stop offset="0.61" stop-color="#5E564A"/>
<stop offset="0.97" stop-color="#C5C383"/>
</linearGradient>
<linearGradient id="paint51_linear_229_5274" x1="154.923" y1="153.102" x2="160.125" y2="147.899" gradientUnits="userSpaceOnUse">
<stop stop-color="#2C382E"/>
<stop offset="0.61" stop-color="#5E564A"/>
<stop offset="0.97" stop-color="#C5C383"/>
</linearGradient>
<linearGradient id="paint52_linear_229_5274" x1="155.681" y1="147.109" x2="161.434" y2="141.355" gradientUnits="userSpaceOnUse">
<stop stop-color="#2C382E"/>
<stop offset="0.61" stop-color="#5E564A"/>
<stop offset="0.97" stop-color="#C5C383"/>
</linearGradient>
<linearGradient id="paint53_linear_229_5274" x1="156.783" y1="141.169" x2="163.075" y2="134.884" gradientUnits="userSpaceOnUse">
<stop stop-color="#2C382E"/>
<stop offset="0.61" stop-color="#5E564A"/>
<stop offset="0.97" stop-color="#C5C383"/>
</linearGradient>
<linearGradient id="paint54_linear_229_5274" x1="158.265" y1="135.303" x2="165.055" y2="128.512" gradientUnits="userSpaceOnUse">
<stop stop-color="#2C382E"/>
<stop offset="0.61" stop-color="#5E564A"/>
<stop offset="0.97" stop-color="#C5C383"/>
</linearGradient>
<linearGradient id="paint55_linear_229_5274" x1="160.099" y1="129.556" x2="167.394" y2="122.261" gradientUnits="userSpaceOnUse">
<stop stop-color="#2C382E"/>
<stop offset="0.61" stop-color="#5E564A"/>
<stop offset="0.97" stop-color="#C5C383"/>
</linearGradient>
<linearGradient id="paint56_linear_229_5274" x1="162.265" y1="123.908" x2="170.031" y2="116.141" gradientUnits="userSpaceOnUse">
<stop stop-color="#2C382E"/>
<stop offset="0.61" stop-color="#5E564A"/>
<stop offset="0.97" stop-color="#C5C383"/>
</linearGradient>
<linearGradient id="paint57_linear_229_5274" x1="164.756" y1="118.4" x2="172.955" y2="110.202" gradientUnits="userSpaceOnUse">
<stop stop-color="#2C382E"/>
<stop offset="0.61" stop-color="#5E564A"/>
<stop offset="0.97" stop-color="#C5C383"/>
</linearGradient>
<linearGradient id="paint58_linear_229_5274" x1="167.573" y1="113.006" x2="176.124" y2="104.455" gradientUnits="userSpaceOnUse">
<stop stop-color="#2C382E"/>
<stop offset="0.61" stop-color="#5E564A"/>
<stop offset="0.97" stop-color="#C5C383"/>
</linearGradient>
<linearGradient id="paint59_linear_229_5274" x1="170.649" y1="107.697" x2="179.459" y2="98.8872" gradientUnits="userSpaceOnUse">
<stop stop-color="#2C382E"/>
<stop offset="0.61" stop-color="#5E564A"/>
<stop offset="0.97" stop-color="#C5C383"/>
</linearGradient>
<linearGradient id="paint60_linear_229_5274" x1="173.938" y1="102.442" x2="182.927" y2="93.4525" gradientUnits="userSpaceOnUse">
<stop stop-color="#2C382E"/>
<stop offset="0.61" stop-color="#5E564A"/>
<stop offset="0.97" stop-color="#C5C383"/>
</linearGradient>
<linearGradient id="paint61_linear_229_5274" x1="177.38" y1="97.2129" x2="186.455" y2="88.1306" gradientUnits="userSpaceOnUse">
<stop stop-color="#2C382E"/>
<stop offset="0.61" stop-color="#5E564A"/>
<stop offset="0.97" stop-color="#C5C383"/>
</linearGradient>
<linearGradient id="paint62_linear_229_5274" x1="180.894" y1="91.9708" x2="189.99" y2="82.8686" gradientUnits="userSpaceOnUse">
<stop stop-color="#2C382E"/>
<stop offset="0.61" stop-color="#5E564A"/>
<stop offset="0.97" stop-color="#C5C383"/>
</linearGradient>
<linearGradient id="paint63_linear_229_5274" x1="184.429" y1="86.6756" x2="193.471" y2="77.6399" gradientUnits="userSpaceOnUse">
<stop stop-color="#2C382E"/>
<stop offset="0.61" stop-color="#5E564A"/>
<stop offset="0.97" stop-color="#C5C383"/>
</linearGradient>
<linearGradient id="paint64_linear_229_5274" x1="187.93" y1="81.3074" x2="196.84" y2="72.3979" gradientUnits="userSpaceOnUse">
<stop stop-color="#2C382E"/>
<stop offset="0.61" stop-color="#5E564A"/>
<stop offset="0.97" stop-color="#C5C383"/>
</linearGradient>
<linearGradient id="paint65_linear_229_5274" x1="191.338" y1="75.8062" x2="200.035" y2="67.1093" gradientUnits="userSpaceOnUse">
<stop stop-color="#2C382E"/>
<stop offset="0.61" stop-color="#5E564A"/>
<stop offset="0.97" stop-color="#C5C383"/>
</linearGradient>
<linearGradient id="paint66_linear_229_5274" x1="194.614" y1="70.1655" x2="203.052" y2="61.7277" gradientUnits="userSpaceOnUse">
<stop stop-color="#2C382E"/>
<stop offset="0.61" stop-color="#5E564A"/>
<stop offset="0.97" stop-color="#C5C383"/>
</linearGradient>
<linearGradient id="paint67_linear_229_5274" x1="197.703" y1="64.3719" x2="205.842" y2="56.2265" gradientUnits="userSpaceOnUse">
<stop stop-color="#2C382E"/>
<stop offset="0.61" stop-color="#5E564A"/>
<stop offset="0.97" stop-color="#C5C383"/>
</linearGradient>
<linearGradient id="paint68_linear_229_5274" x1="200.58" y1="58.4721" x2="208.433" y2="50.619" gradientUnits="userSpaceOnUse">
<stop stop-color="#2C382E"/>
<stop offset="0.61" stop-color="#5E564A"/>
<stop offset="0.97" stop-color="#C5C383"/>
</linearGradient>
<linearGradient id="paint69_linear_229_5274" x1="203.258" y1="52.4859" x2="210.839" y2="44.9052" gradientUnits="userSpaceOnUse">
<stop stop-color="#2C382E"/>
<stop offset="0.61" stop-color="#5E564A"/>
<stop offset="0.97" stop-color="#C5C383"/>
</linearGradient>
<linearGradient id="paint70_linear_229_5274" x1="205.742" y1="46.4333" x2="213.064" y2="39.1117" gradientUnits="userSpaceOnUse">
<stop stop-color="#2C382E"/>
<stop offset="0.61" stop-color="#5E564A"/>
<stop offset="0.97" stop-color="#C5C383"/>
</linearGradient>
<linearGradient id="paint71_linear_229_5274" x1="208.035" y1="40.3276" x2="215.13" y2="33.2318" gradientUnits="userSpaceOnUse">
<stop stop-color="#2C382E"/>
<stop offset="0.61" stop-color="#5E564A"/>
<stop offset="0.97" stop-color="#C5C383"/>
</linearGradient>
<linearGradient id="paint72_linear_229_5274" x1="210.167" y1="34.1753" x2="217.057" y2="27.2855" gradientUnits="userSpaceOnUse">
<stop stop-color="#2C382E"/>
<stop offset="0.61" stop-color="#5E564A"/>
<stop offset="0.97" stop-color="#C5C383"/>
</linearGradient>
<linearGradient id="paint73_linear_229_5274" x1="212.161" y1="27.9965" x2="218.871" y2="21.2861" gradientUnits="userSpaceOnUse">
<stop stop-color="#2C382E"/>
<stop offset="0.61" stop-color="#5E564A"/>
<stop offset="0.97" stop-color="#C5C383"/>
</linearGradient>
<linearGradient id="paint74_linear_229_5274" x1="214.028" y1="21.8043" x2="220.592" y2="15.2401" gradientUnits="userSpaceOnUse">
<stop stop-color="#2C382E"/>
<stop offset="0.61" stop-color="#5E564A"/>
<stop offset="0.97" stop-color="#C5C383"/>
</linearGradient>
<linearGradient id="paint75_linear_229_5274" x1="215.788" y1="15.5922" x2="222.226" y2="9.15427" gradientUnits="userSpaceOnUse">
<stop stop-color="#2C382E"/>
<stop offset="0.61" stop-color="#5E564A"/>
<stop offset="0.97" stop-color="#C5C383"/>
</linearGradient>
<linearGradient id="paint76_linear_229_5274" x1="217.456" y1="9.38014" x2="223.807" y2="3.02854" gradientUnits="userSpaceOnUse">
<stop stop-color="#2C382E"/>
<stop offset="0.61" stop-color="#5E564A"/>
<stop offset="0.97" stop-color="#C5C383"/>
</linearGradient>
<linearGradient id="paint77_linear_229_5274" x1="219.064" y1="3.16809" x2="225.349" y2="-3.11707" gradientUnits="userSpaceOnUse">
<stop stop-color="#2C382E"/>
<stop offset="0.61" stop-color="#5E564A"/>
<stop offset="0.97" stop-color="#C5C383"/>
</linearGradient>
<linearGradient id="paint78_linear_229_5274" x1="221.628" y1="-2.04074" x2="227.096" y2="-7.50869" gradientUnits="userSpaceOnUse">
<stop stop-color="#2C382E"/>
<stop offset="0.61" stop-color="#5E564A"/>
<stop offset="0.97" stop-color="#C5C383"/>
</linearGradient>
</defs>
</svg>
